<svg id="Layer_1" data-name="Layer 1" xmlns="http://www.w3.org/2000/svg" viewBox="0 0 198.73 198.73"><defs><style>.cls-1{fill:#fff;}</style></defs><title>icon</title><path class="cls-1" d="M99.37,12A87.37,87.37,0,1,1,12,99.37,87.47,87.47,0,0,1,99.37,12m0-12a99.37,99.37,0,1,0,99.37,99.37A99.37,99.37,0,0,0,99.37,0Z" transform="translate(0 0)"/><path class="cls-1" d="M100,60.22c10,0,18.12,9.37,18.12,20.89S110,102,100,102,81.88,92.63,81.88,81.11,90,60.22,100,60.22m0-12c-16.64,0-30.12,14.73-30.12,32.89S83.36,114,100,114s30.12-14.73,30.12-32.89S116.64,48.22,100,48.22Z" transform="translate(0 0)"/><path class="cls-1" d="M141.25,131.78V143.2H58.75V131.78h82.51m12-12H46.75V155.2H153.25V119.78Z" transform="translate(0 0)"/></svg>